<svg width="1440" height="2050" viewBox="0 0 1440 2050" fill="none" xmlns="http://www.w3.org/2000/svg">
<rect width="1440" height="2050" fill="white"/>
<path d="M0 662.924C0 662.924 210.523 647.251 345.5 650.424C490.51 653.833 564.469 660.56 709.5 662.924C853.211 665.266 939.321 666.771 1083 662.924C1222.37 659.192 1440 662.924 1440 662.924V2049.92H0V662.924Z" fill="#84C3E3" fill-opacity="0.05"/>
<path d="M1439.5 663.416V2049.42H0.5V663.389L0.64466 663.378C1.04694 663.348 1.64607 663.305 2.43333 663.248C4.00784 663.134 6.33486 662.967 9.34453 662.756C15.3639 662.333 24.1138 661.734 35.0356 661.024C56.8794 659.604 87.4103 657.744 122.159 655.984C191.659 652.462 278.019 649.338 345.488 650.924C412.55 652.5 464.414 654.787 515.145 657.023C519.258 657.204 523.364 657.385 527.47 657.566C582.216 659.969 636.969 662.242 709.492 663.424L716.331 663.536C855.968 665.813 941.617 667.21 1083.01 663.424C1152.69 661.558 1241.93 661.558 1313.76 662.025C1349.67 662.258 1381.23 662.608 1403.81 662.899C1415.1 663.045 1424.15 663.176 1430.37 663.271C1433.48 663.318 1435.89 663.357 1437.51 663.383L1439.36 663.413L1439.5 663.416Z" stroke="white" stroke-opacity="0.2"/>
<path d="M1440 697.526C1440 697.526 1229.48 682.244 1094.5 685.338C949.49 688.662 875.531 695.221 730.5 697.526C586.789 699.81 500.679 701.277 357 697.526C217.633 693.887 0 697.526 0 697.526V2049.92H1440V697.526Z" fill="#84C3E3" fill-opacity="0.1"/>
<path d="M0.5 698.018V2049.42H1439.5V697.991L1439.36 697.981C1438.95 697.952 1438.35 697.909 1437.57 697.854C1435.99 697.743 1433.67 697.58 1430.66 697.374C1424.64 696.962 1415.89 696.377 1404.97 695.685C1383.12 694.301 1352.59 692.488 1317.84 690.771C1248.34 687.337 1161.98 684.291 1094.51 685.838C1027.45 687.375 975.586 689.604 924.855 691.784C920.741 691.961 916.635 692.138 912.529 692.313C857.783 694.657 803.03 696.873 730.508 698.026L723.669 698.135C584.032 700.355 498.383 701.717 356.987 698.026C287.312 696.207 198.069 696.207 126.24 696.661C90.3271 696.889 58.7689 697.23 36.1891 697.514C24.899 697.656 15.8538 697.784 9.63098 697.877C6.51965 697.923 4.11389 697.96 2.48608 697.986L0.636719 698.015L0.5 698.018Z" stroke="white" stroke-opacity="0.2"/>
<path d="M0 715.36C0 715.36 210.523 700.279 345.5 703.332C490.51 706.612 564.469 713.085 709.5 715.36C853.211 717.613 939.321 719.061 1083 715.36C1222.37 711.769 1440 715.36 1440 715.36V2049.92H0V715.36Z" fill="#84C3E3" fill-opacity="0.15"/>
<path d="M1439.5 715.852V2049.42H0.5V715.825L0.643283 715.815C1.04557 715.787 1.64471 715.745 2.43197 715.69C4.0065 715.58 6.33353 715.42 9.34321 715.216C15.3626 714.81 24.1126 714.233 35.0344 713.55C56.8782 712.184 87.4093 710.395 122.158 708.7C191.659 705.312 278.019 702.306 345.489 703.832C412.551 705.349 464.415 707.549 515.146 709.701C519.259 709.875 523.365 710.049 527.471 710.223C582.217 712.535 636.97 714.722 709.492 715.86L716.331 715.967C855.968 718.158 941.617 719.502 1083.01 715.859C1152.69 714.064 1241.93 714.064 1313.76 714.513C1349.67 714.738 1381.23 715.074 1403.81 715.355C1415.1 715.495 1424.15 715.621 1430.37 715.712C1433.48 715.758 1435.89 715.795 1437.51 715.82L1439.36 715.849L1439.5 715.852Z" stroke="white" stroke-opacity="0.2"/>
<path d="M1440 745.083C1440 745.083 1229.48 730.338 1094.5 733.323C949.49 736.53 875.531 742.859 730.5 745.083C586.789 747.286 500.679 748.702 357 745.083C217.633 741.572 0 745.083 0 745.083V2049.92H1440V745.083Z" fill="#84C3E3" fill-opacity="0.2"/>
<path d="M0.5 745.575V2049.42H1439.5V745.549L1439.36 745.539C1438.96 745.511 1438.36 745.47 1437.57 745.417C1435.99 745.309 1433.67 745.153 1430.66 744.954C1424.64 744.557 1415.89 743.992 1404.97 743.325C1383.12 741.989 1352.59 740.239 1317.84 738.583C1248.34 735.27 1161.98 732.331 1094.51 733.823C1027.45 735.306 975.585 737.457 924.854 739.561C920.741 739.731 916.635 739.902 912.528 740.071C857.782 742.332 803.03 744.471 730.508 745.583L723.668 745.688C584.032 747.83 498.383 749.144 356.987 745.583C287.312 743.827 198.068 743.827 126.24 744.266C90.327 744.486 58.7687 744.815 36.1888 745.089C24.8989 745.226 15.8535 745.35 9.63074 745.439C6.51941 745.483 4.11365 745.519 2.48572 745.544L0.636475 745.573L0.5 745.575Z" stroke="white" stroke-opacity="0.2"/>
<path d="M1440 773.815C1440 773.815 1229.48 759.395 1094.5 762.314C949.49 765.451 875.531 771.64 730.5 773.815C586.789 775.97 495.179 793.464 351.5 789.924C212.133 786.491 0 773.815 0 773.815V2049.92H1440V773.815Z" fill="#84C3E3" fill-opacity="0.25"/>
<path d="M1439.5 2049.42V774.282L1439.36 774.273C1438.96 774.245 1438.36 774.205 1437.57 774.153C1436 774.048 1433.67 773.894 1430.66 773.7C1424.64 773.311 1415.89 772.76 1404.97 772.107C1383.12 770.8 1352.59 769.089 1317.84 767.469C1248.34 764.229 1161.98 761.355 1094.51 762.814C1027.45 764.265 975.584 766.368 924.854 768.426C920.74 768.592 916.634 768.759 912.528 768.925C857.782 771.136 803.029 773.227 730.508 774.315C667.969 775.253 615.301 779.096 563.899 782.847C556.255 783.404 548.639 783.96 541.023 784.504C482.192 788.704 423.351 792.194 351.488 790.424C281.797 788.707 193.917 784.68 123.462 781.081C88.2336 779.282 57.361 777.59 35.2953 776.348C24.2623 775.727 15.4313 775.219 9.35828 774.865C6.32178 774.689 3.97473 774.551 2.38696 774.457L0.58313 774.351L0.5 774.346V2049.42H1439.5Z" stroke="white" stroke-opacity="0.2"/>
<path d="M0 815.427C0 815.427 210.523 801.477 345.5 804.302C490.51 807.336 564.469 813.323 709.5 815.427C853.211 817.512 944.821 834.435 1088.5 831.011C1227.87 827.69 1440 815.427 1440 815.427V2049.92H0V815.427Z" fill="#84C3E3" fill-opacity="0.3"/>
<path d="M0.5 2049.42V815.895L0.640652 815.886C1.04295 815.86 1.6421 815.821 2.42938 815.77C4.00393 815.669 6.33098 815.52 9.34069 815.332C15.3601 814.956 24.1102 814.423 35.0321 813.791C56.876 812.527 87.4072 810.872 122.156 809.305C191.657 806.17 278.018 803.39 345.49 804.802C412.552 806.205 464.416 808.24 515.147 810.23C519.261 810.391 523.367 810.552 527.473 810.713C582.219 812.852 636.971 814.875 709.493 815.927C772.032 816.834 824.7 820.552 876.102 824.181C883.746 824.72 891.362 825.258 898.978 825.784C957.809 829.848 1016.65 833.224 1088.51 831.511C1158.2 829.85 1246.08 825.954 1316.54 822.473C1351.77 820.733 1382.64 819.096 1404.7 817.894C1415.74 817.294 1424.57 816.802 1430.64 816.46C1433.68 816.289 1436.02 816.156 1437.61 816.065L1439.42 815.962L1439.5 815.957V2049.42H0.5Z" stroke="white" stroke-opacity="0.2"/>
<path d="M0 847.132C0 847.132 210.523 833.54 345.5 836.292C490.51 839.248 695.469 860.265 840.5 862.315C984.211 864.347 1080.82 850.468 1224.5 847.132C1363.87 843.896 1440 847.132 1440 847.132V2049.92H0V847.132Z" fill="#84C3E3" fill-opacity="0.35"/>
<path d="M0.5 847.601L0.639817 847.592C1.04212 847.566 1.64127 847.528 2.42855 847.479C4.00312 847.38 6.33018 847.235 9.3399 847.052C15.3593 846.686 24.1094 846.166 35.0314 845.55C56.8753 844.319 87.4066 842.706 122.156 841.179C191.656 838.126 278.018 835.416 345.49 836.792C415.711 838.223 499.996 843.891 584.74 849.59C587.479 849.774 590.219 849.958 592.959 850.142C680.45 856.022 767.962 861.79 840.493 862.815C912.367 863.831 972.462 860.868 1032.54 857.235C1042.52 856.632 1052.51 856.01 1062.54 855.384C1112.91 852.245 1164.62 849.022 1224.51 847.632C1294.19 846.014 1348.06 846.014 1384.51 846.418C1402.73 846.62 1416.6 846.924 1425.91 847.176C1430.57 847.303 1434.09 847.417 1436.44 847.499C1437.62 847.54 1438.5 847.573 1439.09 847.596C1439.25 847.602 1439.38 847.607 1439.5 847.612V2049.42H0.5V847.601Z" stroke="white" stroke-opacity="0.2"/>
<path d="M1440 877.846C1440 877.846 1229.48 864.601 1094.5 867.282C949.49 870.163 744.531 890.644 599.5 892.641C455.789 894.621 359.179 881.097 215.5 877.846C76.1328 874.692 0 877.846 0 877.846V2049.92H1440V877.846Z" fill="#84C3E3" fill-opacity="0.4"/>
<path d="M0.5 878.326V2049.42H1439.5V878.315L1439.36 878.307C1438.96 878.282 1438.36 878.245 1437.57 878.197C1436 878.1 1433.67 877.959 1430.66 877.781C1424.64 877.424 1415.89 876.917 1404.97 876.317C1383.13 875.118 1352.59 873.546 1317.85 872.058C1248.34 869.082 1161.98 866.442 1094.51 867.782C1024.29 869.177 940.003 874.7 855.259 880.254C852.52 880.433 849.78 880.613 847.04 880.792C759.549 886.522 672.038 892.142 599.507 893.141C527.633 894.131 467.539 891.244 407.458 887.704C397.477 887.116 387.495 886.51 377.461 885.9C327.095 882.841 275.383 879.701 215.489 878.345C145.811 876.769 91.9415 876.769 55.4927 877.163C37.2683 877.36 23.399 877.656 14.0865 877.902C9.4303 878.025 5.91321 878.136 3.56055 878.216C2.38416 878.256 1.4989 878.288 0.907837 878.311L0.600342 878.322L0.5 878.326Z" stroke="white" stroke-opacity="0.2"/>
<path d="M0 917.476C0 917.476 210.523 904.68 345.5 907.27C490.51 910.054 695.469 929.842 840.5 931.772C984.211 933.684 1080.82 920.617 1224.5 917.476C1363.87 914.429 1440 917.476 1440 917.476V2049.92H0V917.476Z" fill="#84C3E3" fill-opacity="0.45"/>
<path d="M1439.5 917.957V2049.42H0.5V917.947L0.637966 917.939C1.04027 917.915 1.63944 917.879 2.42673 917.832C4.00131 917.739 6.32839 917.603 9.33813 917.431C15.3576 917.086 24.1077 916.596 35.0297 916.017C56.8738 914.857 87.4052 913.339 122.154 911.901C191.655 909.026 278.018 906.475 345.49 907.77C415.712 909.118 499.998 914.454 584.742 919.82C587.481 919.993 590.221 920.167 592.961 920.34C680.452 925.876 767.963 931.307 840.493 932.272C912.366 933.228 972.46 930.439 1032.54 927.018C1042.52 926.45 1052.5 925.864 1062.54 925.276C1112.9 922.32 1164.62 919.286 1224.51 917.976C1294.19 916.453 1348.06 916.453 1384.51 916.834C1402.73 917.024 1416.6 917.31 1425.91 917.548C1430.57 917.667 1434.09 917.774 1436.44 917.851C1437.62 917.89 1438.5 917.921 1439.09 917.942C1439.25 917.948 1439.38 917.953 1439.5 917.957Z" stroke="white" stroke-opacity="0.2"/>
<path d="M0 953.144C0 953.144 210.523 940.75 345.5 943.259C490.51 945.955 695.469 965.12 840.5 966.989C984.211 968.841 1080.82 956.186 1224.5 953.144C1363.87 950.193 1440 953.144 1440 953.144V2049.92H0V953.144Z" fill="#84C3E3" fill-opacity="0.5"/>
<path d="M1439.5 953.626V2049.42H0.5V953.616L0.637026 953.608C1.03934 953.584 1.63851 953.55 2.4258 953.505C4.00039 953.414 6.32748 953.282 9.33723 953.116C15.3567 952.782 24.1069 952.307 35.0289 951.746C56.873 950.623 87.4044 949.153 122.154 947.76C191.655 944.976 278.018 942.505 345.491 943.759C415.713 945.065 499.999 950.233 584.743 955.429L592.962 955.933C680.453 961.295 767.964 966.554 840.494 967.489C912.366 968.416 972.459 965.714 1032.54 962.401C1042.52 961.851 1052.5 961.284 1062.54 960.713C1112.9 957.851 1164.62 954.912 1224.51 953.644C1294.19 952.168 1348.06 952.168 1384.51 952.537C1402.73 952.722 1416.6 952.998 1425.91 953.229C1430.57 953.344 1434.09 953.448 1436.44 953.523C1437.62 953.56 1438.5 953.59 1439.09 953.611C1439.25 953.617 1439.39 953.622 1439.5 953.626Z" stroke="white" stroke-opacity="0.2"/>
<path d="M1440 992.775C1440 992.775 1229.48 980.829 1094.5 983.247C949.49 985.846 744.531 1004.32 599.5 1006.12C455.789 1007.9 359.179 995.707 215.5 992.775C76.1328 989.93 0 992.775 0 992.775V2049.92H1440V992.775Z" fill="#84C3E3" fill-opacity="0.55"/>
<path d="M0.5 993.257V2049.42H1439.5V993.247L1439.36 993.24C1438.96 993.217 1438.36 993.184 1437.58 993.14C1436 993.053 1433.67 992.926 1430.66 992.765C1424.64 992.443 1415.89 991.986 1404.97 991.445C1383.13 990.363 1352.6 988.946 1317.85 987.604C1248.35 984.92 1161.98 982.538 1094.51 983.747C1024.29 985.005 940 989.987 855.256 994.996L847.037 995.481C759.545 1000.65 672.036 1005.72 599.506 1006.62C527.634 1007.51 467.541 1004.91 407.461 1001.72C397.48 1001.19 387.499 1000.64 377.464 1000.09C327.099 997.33 275.385 994.497 215.49 993.275C145.811 991.852 91.9415 991.853 55.4922 992.208C37.2676 992.386 23.3981 992.652 14.0853 992.875C9.42896 992.986 5.91174 993.086 3.55884 993.158C2.38245 993.194 1.49707 993.223 0.906006 993.243C0.750244 993.248 0.614868 993.253 0.5 993.257Z" stroke="white" stroke-opacity="0.2"/>
<path d="M0 1032.41C0 1032.41 204.023 1006.1 339 1008.42C484.01 1010.93 695.969 1055.69 841 1057.42C984.711 1059.14 1080.82 1035.23 1224.5 1032.41C1363.87 1029.67 1440 1032.41 1440 1032.41V2049.92H0V1032.41Z" fill="#84C3E3" fill-opacity="0.6"/>
<path d="M1439.5 1032.89V2049.42H0.5V1032.85L0.652583 1032.83C1.04248 1032.78 1.62327 1032.7 2.38663 1032.61C3.91336 1032.41 6.17036 1032.13 9.09096 1031.78C14.9322 1031.06 23.4278 1030.04 34.0444 1028.83C55.2779 1026.4 84.9951 1023.18 118.93 1020.04C186.804 1013.75 271.531 1007.76 338.991 1008.92C410.644 1010.16 498.661 1021.72 586.905 1033.31L589.927 1033.71C679.163 1045.43 768.443 1057.06 840.994 1057.92C912.879 1058.78 972.858 1053.23 1032.81 1047.11C1037.63 1046.62 1042.45 1046.13 1047.28 1045.63C1102.48 1039.96 1158.47 1034.2 1224.51 1032.91C1294.19 1031.54 1348.06 1031.54 1384.51 1031.88C1402.73 1032.05 1416.6 1032.31 1425.92 1032.52C1430.57 1032.63 1434.09 1032.72 1436.44 1032.79C1437.62 1032.83 1438.5 1032.86 1439.09 1032.88C1439.25 1032.88 1439.39 1032.88 1439.5 1032.89Z" stroke="white" stroke-opacity="0.2"/>
<path d="M1440 1075.04C1440 1075.04 1235.98 1049.83 1101 1052.06C955.99 1054.46 744.031 1097.35 599 1099.01C455.289 1100.66 359.179 1077.74 215.5 1075.04C76.1328 1072.42 0 1075.04 0 1075.04V2049.92H1440V1075.04Z" fill="#84C3E3" fill-opacity="0.65"/>
<path d="M1439.5 1075.48L1439.35 1075.46C1438.96 1075.42 1438.38 1075.35 1437.62 1075.25C1436.09 1075.07 1433.83 1074.8 1430.91 1074.46C1425.07 1073.77 1416.57 1072.8 1405.96 1071.63C1384.72 1069.31 1355.01 1066.22 1321.07 1063.21C1253.2 1057.19 1168.47 1051.45 1101.01 1052.56C1029.35 1053.75 941.337 1064.82 853.093 1075.93L850.07 1076.31C760.834 1087.54 671.556 1098.68 599.006 1099.51C527.122 1100.33 467.144 1095.02 407.189 1089.15C402.369 1088.68 397.548 1088.21 392.722 1087.73C337.52 1082.3 281.532 1076.78 215.491 1075.54C145.812 1074.23 91.9415 1074.23 55.4918 1074.56C37.267 1074.72 23.3973 1074.97 14.0844 1075.17C9.42786 1075.27 5.91064 1075.37 3.55762 1075.43C2.38123 1075.47 1.49585 1075.49 0.904663 1075.51L0.505859 1075.52L0.5 1075.52V2049.42H1439.5V1075.48Z" stroke="white" stroke-opacity="0.2"/>
<path d="M0 1118.02C0 1118.02 204.023 1093.93 339 1096.06C484.01 1098.35 695.969 1139.35 841 1140.93C984.711 1142.51 1080.82 1120.61 1224.5 1118.02C1363.87 1115.51 1440 1118.02 1440 1118.02V2049.92H0V1118.02Z" fill="#84C3E3" fill-opacity="0.7"/>
<path d="M1439.5 1118.51V2049.42H0.5V1118.47L0.647341 1118.45C1.03725 1118.4 1.61807 1118.34 2.38145 1118.25C3.90822 1118.07 6.16527 1117.81 9.08592 1117.49C14.9272 1116.83 23.4229 1115.9 34.0397 1114.79C55.2734 1112.56 84.9909 1109.62 118.926 1106.74C186.8 1100.98 271.53 1095.49 338.992 1096.56C410.647 1097.69 498.666 1108.28 586.908 1118.89L589.932 1119.26C679.169 1129.99 768.446 1140.64 840.995 1141.43C912.877 1142.22 972.854 1137.14 1032.81 1131.54C1037.63 1131.08 1042.45 1130.63 1047.28 1130.18C1102.48 1124.98 1158.47 1119.71 1224.51 1118.52C1294.19 1117.27 1348.06 1117.27 1384.51 1117.58C1402.73 1117.74 1416.6 1117.97 1425.92 1118.17C1430.57 1118.27 1434.09 1118.35 1436.44 1118.42C1437.62 1118.45 1438.5 1118.48 1439.1 1118.49C1439.25 1118.5 1439.39 1118.5 1439.5 1118.51Z" stroke="white" stroke-opacity="0.2"/>
<path d="M0 1158.07C0 1158.07 204.023 1135.01 339 1137.05C484.01 1139.24 695.969 1178.48 841 1180C984.711 1181.51 1080.82 1160.55 1224.5 1158.07C1363.87 1155.67 1440 1158.07 1440 1158.07V2049.92H0V1158.07Z" fill="#84C3E3" fill-opacity="0.75"/>
<path d="M1439.5 1158.56V2049.42H0.5V1158.52L0.644881 1158.5C1.0348 1158.46 1.61563 1158.39 2.37902 1158.31C3.90581 1158.14 6.16288 1157.89 9.08355 1157.58C14.9249 1156.96 23.4207 1156.06 34.0375 1155C55.2713 1152.87 84.9889 1150.05 118.924 1147.29C186.799 1141.79 271.529 1136.53 338.992 1137.55C410.649 1138.64 498.668 1148.77 586.91 1158.93L589.935 1159.27C679.172 1169.55 768.448 1179.74 840.995 1180.5C912.876 1181.25 972.853 1176.39 1032.81 1171.03C1037.63 1170.6 1042.45 1170.16 1047.27 1169.73C1102.48 1164.75 1158.47 1159.71 1224.51 1158.57C1294.19 1157.37 1348.06 1157.37 1384.51 1157.67C1402.73 1157.82 1416.6 1158.05 1425.92 1158.23C1430.57 1158.33 1434.09 1158.41 1436.44 1158.47C1437.62 1158.5 1438.51 1158.53 1439.1 1158.54C1439.25 1158.55 1439.39 1158.55 1439.5 1158.56Z" stroke="white" stroke-opacity="0.2"/>
<path d="M1440 1211.8C1440 1211.8 1231.48 1209.88 1096.5 1211.8C951.49 1213.86 913.531 1235.5 768.5 1236.92C624.789 1238.34 403.179 1196.25 259.5 1193.92C120.133 1191.67 0 1211.8 0 1211.8V2049.92H1440V1211.8Z" fill="#84C3E3" fill-opacity="0.8"/>
<path d="M0.5 1212.22V2049.42H1439.5V1212.29L1439.39 1212.29L1437.62 1212.28C1436.06 1212.26 1433.75 1212.24 1430.77 1212.22C1424.81 1212.17 1416.13 1212.1 1405.31 1212.03C1383.65 1211.88 1353.37 1211.7 1318.86 1211.58C1249.86 1211.34 1163.99 1211.34 1096.51 1212.3C1024.71 1213.32 979.177 1219.14 933.866 1224.93L932.571 1225.09C886.82 1230.94 841.05 1236.71 768.505 1237.42C696.612 1238.13 605.248 1227.96 513.93 1217.32C508.679 1216.71 503.429 1216.1 498.182 1215.49C412.161 1205.44 327.172 1195.52 259.492 1194.42C189.833 1193.3 124.978 1197.76 77.5371 1202.51C53.817 1204.89 34.4514 1207.33 21.0166 1209.18C14.2993 1210.11 9.0647 1210.89 5.51001 1211.43C3.73267 1211.7 2.37524 1211.92 1.46252 1212.07C1.05017 1212.13 0.728516 1212.18 0.5 1212.22Z" stroke="white" stroke-opacity="0.2"/>
</svg>
