<svg width="1440" height="2050" viewBox="0 0 1440 2050" fill="none" xmlns="http://www.w3.org/2000/svg">
<rect width="1440" height="2050" fill="white"/>
<path d="M0 647C0 647 214.5 653.525 399.5 690.5C584.5 727.475 706.5 761.731 706.5 761.731C706.5 761.731 944.769 811.815 1090.5 848.187C1235.72 884.432 1440 919.419 1440 919.419V2039H0V647Z" fill="#BAD063" fill-opacity="0.7"/>
<path d="M1440 759C1440 759 1225.5 765 1040.5 799C855.5 833 733.5 864.5 733.5 864.5C733.5 864.5 495.231 910.554 349.5 944C204.28 977.328 0 1009.5 0 1009.5V2039H1440V759Z" fill="#BAD063" fill-opacity="0.8"/>
<path d="M1440 994.26C1440 994.26 1213.5 989.728 1028.5 1018.53C843.5 1047.34 708 1086.01 708 1086.01C708 1086.01 521.231 1138.47 375.5 1166.8C230.28 1195.04 0 1235.92 0 1235.92V2039H1440V994.26Z" fill="#98A344" fill-opacity="0.7"/>
<path d="M0 899C0 899 208.5 916.395 393.5 944.92C578.5 973.446 730 991.362 730 991.362C730 991.362 958.269 1018.61 1104 1046.68C1249.22 1074.64 1440 1112.42 1440 1112.42V2039H0V899Z" fill="#98A344" fill-opacity="0.8"/>
<path d="M0 1089C0 1089 214.5 1093.45 399.5 1118.69C584.5 1143.92 706.5 1167.3 706.5 1167.3C706.5 1167.3 944.769 1201.48 1090.5 1226.3C1235.72 1251.04 1440 1274.92 1440 1274.92V2039H0V1089Z" fill="#FBB821" fill-opacity="0.6"/>
<path d="M0 1218C0 1218 214.5 1221.85 399.5 1243.66C584.5 1265.46 706.5 1285.67 706.5 1285.67C706.5 1285.67 944.769 1315.21 1090.5 1336.66C1235.72 1358.04 1440 1378.67 1440 1378.67V2039H0V1218Z" fill="#DD8C22" fill-opacity="0.6"/>
<path d="M1440 1176C1440 1176 1304 1178.08 1119 1201C934 1223.92 754.5 1278 754.5 1278C754.5 1278 465.231 1360.45 319.5 1383C174.28 1405.47 0 1474 0 1474V2039H1440V1176Z" fill="#DD8C22" fill-opacity="0.8"/>
</svg>
